<svg width="30" height="31" viewBox="0 0 30 31" fill="none" xmlns="http://www.w3.org/2000/svg">
<path fill-rule="evenodd" clip-rule="evenodd" d="M4.6847 4.02412L10.3146 7.30694V0.737959C13.3617 -0.245986 16.6367 -0.245986 19.6837 0.737959V7.30694L25.3159 4.02412C27.6863 6.19425 29.3243 9.05951 30 12.2177L24.3673 15.5017L30 18.7842C29.3245 21.9424 27.6865 24.8075 25.3159 26.9773L19.6837 23.6953V30.2632C16.6365 31.2456 13.3619 31.2456 10.3146 30.2632V23.6953L4.6847 26.9773C2.31338 24.808 0.674994 21.9427 0 18.7842L5.63131 15.5017L0 12.2177C0.675247 9.0592 2.31358 6.19375 4.6847 4.02412Z" fill="#008CE6"/>
<g clip-path="url(#clip0)">
<path d="M15.3902 18.778L19.8402 14.3278C19.9433 14.2249 20 14.0875 20 13.941C20 13.7945 19.9433 13.6571 19.8402 13.5542L19.5126 13.2265C19.2991 13.0132 18.9521 13.0132 18.739 13.2265L15.0021 16.9633L11.261 13.2223C11.158 13.1194 11.0207 13.0626 10.8743 13.0626C10.7277 13.0626 10.5904 13.1194 10.4873 13.2223L10.1598 13.55C10.0567 13.653 10 13.7904 10 13.9369C10 14.0834 10.0567 14.2208 10.1598 14.3237L14.6139 18.778C14.7172 18.8811 14.8552 18.9378 15.0018 18.9375C15.1491 18.9378 15.2869 18.8811 15.3902 18.778Z" fill="white"/>
</g>
<defs>
<clipPath id="clip0">
<rect width="10" height="10" fill="white" transform="translate(20 11) rotate(90)"/>
</clipPath>
</defs>
</svg>
