<svg width="55" height="55" viewBox="0 0 55 55" fill="none" xmlns="http://www.w3.org/2000/svg">
<path d="M54.0332 55C54.0332 43.291 44.6875 34.5898 44.6875 34.5898C44.6875 34.5898 47.5879 17.7246 47.5879 3.00781H7.51953C7.51953 23.2031 10.8496 35.5566 10.8496 35.5566C10.8496 35.5566 0.966797 46.1914 0.966797 55H54.0332Z" fill="#F0C7AD"/>
<path d="M29.1113 38.2422C29.1113 38.9541 28.3419 39.3164 27.3926 39.3164C26.4433 39.3164 25.6738 38.8467 25.6738 38.1348C25.6738 37.4229 26.8555 36.7383 27.3926 36.7383C28.3419 36.7383 29.1113 37.5303 29.1113 38.2422Z" fill="#E19D83"/>
<path d="M15.1465 34.4824C15.1465 34.4824 17.5635 39.585 19.1211 41.1426C20.6787 42.7002 26.4258 42.1094 26.4258 42.1094V42.7539C26.4258 42.7539 20.3027 44.2578 18.0469 42.002C15.791 39.7461 14.6094 34.9121 14.6094 34.9121L15.1465 34.4824Z" fill="#E19D83"/>
<path d="M29.1113 42.1094C29.1113 42.1094 33.9453 42.2168 35.6641 40.498C37.3828 38.7793 38.7793 33.8379 38.7793 33.8379L39.4238 34.0527C39.4238 34.0527 38.4033 40.0146 36.8457 41.5723C35.2881 43.1299 29.1113 42.6465 29.1113 42.6465V42.1094Z" fill="#E19D83"/>
<path d="M29.8633 48.8541C23.7363 48.8541 11.4935 45.4976 5.09104 43.2631C2.9208 46.8064 0.966797 51.0834 0.966797 55H54.0332C54.0332 50.9891 52.9364 47.3315 51.4945 44.2552C46.031 46.2575 35.8705 48.8541 29.8633 48.8541Z" fill="#7A7A93"/>
<path d="M13.5352 20.625C13.5352 20.625 18.7988 24.8145 21.5918 24.8145C24.3848 24.8145 27.5 22.2363 27.5 22.2363C27.5 22.2363 30.5078 24.8145 34.0527 24.8145C37.5977 24.8145 40.9277 20.9473 40.9277 20.9473L39.9609 20.625C39.9609 20.625 35.3418 23.6328 34.0527 23.6328C32.7637 23.6328 27.5 20.3027 27.5 20.3027C27.5 20.3027 23.418 23.418 21.8066 23.418C20.1953 23.418 14.0723 19.9805 14.0723 19.9805L13.5352 20.625Z" fill="#E19D83"/>
<path d="M15.2539 14.3945C15.2539 14.3945 19.0137 17.2949 21.4844 17.2949C23.9551 17.2949 27.8223 15.2539 27.8223 15.2539C27.8223 15.2539 31.3672 17.5098 34.6973 17.5098C38.0273 17.5098 40.8203 15.1465 40.8203 15.1465L40.0684 14.6094C40.0684 14.6094 37.168 16.4355 34.6973 16.4355C33.7305 16.4355 27.8223 13.6426 27.8223 13.6426C27.8223 13.6426 23.2031 15.8984 21.4844 15.8984C19.7656 15.8984 16.1133 13.8574 16.1133 13.8574L15.2539 14.3945Z" fill="#E19D83"/>
<path d="M26.8555 15.0391L27.1777 21.0547L28.0371 21.2695L28.6816 15.0391L27.7148 14.3945L26.8555 15.0391Z" fill="#E19D83"/>
<path d="M3.22266 0C3.22266 0 3.54492 10.5273 14.7168 10.5273C22.9883 10.5273 27.6074 6.55273 27.6074 6.55273C27.6074 6.55273 31.582 10.957 41.25 10.957C51.1328 10.957 51.7773 0 51.7773 0H3.22266Z" fill="#7A7A93"/>
</svg>
