<svg width="20" height="18" viewBox="0 0 20 18" fill="none" xmlns="http://www.w3.org/2000/svg">
<path d="M16.9929 2.63881C16.5454 1.51958 15.4777 0.796912 14.2726 0.796912H14.1016V0.210938H5.89845V0.796873H5.72735C4.52229 0.796873 3.45455 1.51958 3.00708 2.63877L1.12668 7.24221H0V8.41408H0.842861C1.11234 8.41408 1.34584 8.59663 1.41163 8.85753L3.35042 16.4581C3.54609 17.2415 4.24761 17.789 5.05559 17.789H14.9444C15.7524 17.789 16.493 17.2414 16.6886 16.4575L18.5884 8.85809C18.6542 8.59659 18.8876 8.41408 19.1571 8.41408H20V7.24221H18.8733L16.9929 2.63881ZM7.07032 15.4453H5.89845V9.58595H7.07032V15.4453ZM10.5859 15.4453H9.41406V9.58595H10.5859V15.4453ZM14.1016 15.4453H12.9297V9.58595H14.1016V15.4453ZM4.09545 3.07369C4.36379 2.40252 5.00469 1.96878 5.72735 1.96878H5.89845V2.55468H14.1016V1.96874H14.2727C14.9954 1.96874 15.6363 2.40248 15.9046 3.07365L17.6111 7.24217H2.38894L4.09545 3.07369Z" fill="#008CE6"/>
</svg>
