<svg width="379" height="776" viewBox="0 0 379 776" fill="none" xmlns="http://www.w3.org/2000/svg">
<path d="M260.772 182.909V183.776L260.022 183.342L118.276 101.349C58.758 155.478 17.6039 226.883 0.565613 305.587L142.347 387.609L143.096 388.042L142.347 388.475L0.565613 470.462C17.5975 549.164 58.7529 620.567 118.276 674.686L260.022 592.714L260.772 592.28V593.147V757.19C337.352 781.603 419.607 781.603 496.186 757.19V593.147V592.28L496.936 592.714L638.738 674.686C698.243 620.554 739.391 549.156 756.434 470.462L614.618 388.475L613.87 388.042L614.618 387.609L756.434 305.587C739.384 226.891 698.238 155.491 638.738 101.349L496.936 183.342L496.186 183.776V182.909V18.8378C419.613 -5.6126 337.346 -5.6126 260.772 18.8378V182.909Z" fill="#008CE6" stroke="#41B5FF"/>
</svg>
