<svg width="151" height="902" viewBox="0 0 151 902" fill="none" xmlns="http://www.w3.org/2000/svg">
<path d="M65.301 854.246L65.301 854.604L65.6407 854.719L136.07 878.553L136.07 901.157L45.0664 869.852L45.0664 827.756L136.07 796.451L136.07 819.055L65.6407 842.886L65.301 843.001L65.301 843.36L65.301 854.246Z" stroke="#41B5FF"/>
<path d="M6.55182 758.287L7.41788 758.287L6.98483 757.537L4.2261 752.76C5.98575 750.92 8.23443 749.622 10.707 749.017L13.4667 753.797L13.8998 754.547L14.3327 753.797L17.0913 749.017C19.5637 749.622 21.8123 750.92 23.5716 752.759L20.8135 757.538L20.3806 758.287L21.2466 758.287L26.7653 758.287C27.4734 760.732 27.4734 763.327 26.7653 765.772L21.2466 765.772L20.3808 765.772L20.8135 766.521L23.5716 771.301C21.8119 773.14 19.5635 774.438 17.0913 775.043L14.3328 770.263L13.8998 769.512L13.4667 770.263L10.707 775.043C8.23466 774.438 5.98611 773.14 4.2261 771.301L6.98487 766.521L7.41771 765.772L6.55182 765.772L1.03192 765.772C0.322692 763.327 0.322692 760.732 1.03192 758.287L6.55182 758.287Z" stroke="#41B5FF"/>
<path d="M10.1559 698.607L10.1559 697.741L9.40602 698.174L4.62711 700.932C2.78909 699.172 1.49106 696.924 0.885683 694.453L5.66422 691.691L6.41374 691.258L5.664 690.825L0.885512 688.067C1.48951 685.594 2.78772 683.346 4.62693 681.586L9.40595 684.345L10.1559 684.778L10.1559 683.912L10.1559 678.392C12.5998 677.683 15.1951 677.683 17.639 678.392L17.639 683.912L17.639 684.778L18.3889 684.345L23.1694 681.586C25.0082 683.346 26.3065 685.595 26.9111 688.067L22.1329 690.825L21.3832 691.258L22.1327 691.691L26.9109 694.453C26.3049 696.924 25.0069 699.172 23.1692 700.932L18.3888 698.174L17.639 697.741L17.639 698.607L17.639 704.124C15.1956 704.837 12.5993 704.837 10.1559 704.124L10.1559 698.607Z" stroke="#41B5FF"/>
<path d="M65.3002 607.017L65.3002 607.375L65.6399 607.49L115.178 624.254L115.838 624.478L115.838 623.781L115.838 579.369L115.838 578.672L115.178 578.896L65.6399 595.658L65.3002 595.773L65.3002 596.131L65.3002 607.017ZM115.501 556.297L115.838 556.181L115.838 555.824L115.838 541.669L149.5 541.669L149.5 563.039L136.572 563.039L136.072 563.039L136.072 563.539L136.073 639.607L136.073 640.107L136.573 640.107L149.5 640.107L149.5 661.481L115.838 661.481L115.838 647.323L115.838 646.967L115.501 646.851L45.0664 622.624L45.0664 580.526L115.501 556.297Z" stroke="#41B5FF"/>
<path d="M71.5679 771.323L71.5673 771.322C65.5403 768.834 60.0644 765.179 55.4541 760.567C50.8438 755.956 47.19 750.479 44.7024 744.452L44.7021 744.451C42.0395 738.022 40.7581 731.104 40.941 724.148C41.1238 717.191 42.7669 710.35 45.7637 704.069C48.7604 697.788 53.0438 692.207 58.3362 687.688C63.5251 683.258 69.5703 679.945 76.0937 677.955L111.504 744.563L111.842 745.198L112.319 744.66C115.169 741.448 117.269 737.642 118.466 733.518C119.663 729.395 119.929 725.056 119.243 720.817C118.557 716.578 116.937 712.545 114.5 709.01C112.155 705.608 109.11 702.748 105.571 700.622L115.376 682.459C126.179 688.687 134.247 698.758 137.966 710.673C141.736 722.75 140.752 735.81 135.216 747.186C129.68 758.562 120.01 767.395 108.18 771.881C96.3509 776.367 83.255 776.167 71.5679 771.323ZM69.5791 706.384L69.2397 705.746L68.7622 706.289C64.866 710.719 62.4122 716.231 61.7275 722.091C61.0428 727.951 62.1598 733.881 64.9296 739.09C67.6995 744.299 71.9907 748.541 77.2318 751.25C82.4729 753.959 88.415 755.007 94.2666 754.255L94.9837 754.162L94.6443 753.524L69.5791 706.384Z" stroke="#41B5FF"/>
<path fill-rule="evenodd" clip-rule="evenodd" d="M150.902 346.384L65.2526 316.94L65.2526 311.324L150.902 281.85L150.902 251.888L39.5596 290.191L39.5596 338.038L150.902 376.341L150.902 346.384Z" fill="#0E96ED"/>
<path fill-rule="evenodd" clip-rule="evenodd" d="M64.592 148.171L38.8955 148.171L38.8955 231.661L150.241 231.661L150.241 148.171L124.535 148.171L124.535 204.64L107.418 204.64L107.418 161.02L81.715 161.02L81.715 204.64L64.592 204.64L64.592 148.171Z" fill="#0E96ED"/>
<path fill-rule="evenodd" clip-rule="evenodd" d="M28.0226 168.282C28.0231 165.61 27.2311 162.997 25.7468 160.775C24.2625 158.553 22.1525 156.821 19.6838 155.798C17.215 154.775 14.4982 154.507 11.8771 155.028C9.25604 155.549 6.84831 156.835 4.95845 158.725C3.06858 160.614 1.78147 163.021 1.25987 165.642C0.738267 168.263 1.00562 170.98 2.02811 173.449C3.05059 175.918 4.78227 178.029 7.00418 179.513C9.22609 180.998 11.8384 181.791 14.5108 181.791C18.0938 181.791 21.5301 180.368 24.064 177.834C26.5978 175.301 28.0218 171.865 28.0226 168.282Z" fill="#0E96ED"/>
<path fill-rule="evenodd" clip-rule="evenodd" d="M28.0226 211.549C28.0232 208.877 27.2314 206.264 25.7471 204.042C24.2629 201.82 22.153 200.087 19.6842 199.064C17.2154 198.041 14.4987 197.773 11.8775 198.294C9.25641 198.815 6.84864 200.101 4.9587 201.991C3.06877 203.88 1.78157 206.288 1.25991 208.909C0.738258 211.529 1.00559 214.246 2.02805 216.715C3.05052 219.184 4.7822 221.295 7.00412 222.78C9.22605 224.264 11.8384 225.057 14.5108 225.057C18.0937 225.057 21.53 223.634 24.0638 221.101C26.5977 218.568 28.0217 215.132 28.0226 211.549Z" fill="#0E96ED"/>
<path fill-rule="evenodd" clip-rule="evenodd" d="M61.3888 69.9589L61.3888 58.3954L114.02 40.5878L114.02 87.7693L61.3888 69.9589ZM114.02 15.5735L38.8291 41.4376L38.8291 86.9191L114.02 112.782L114.02 128.356L150.846 128.356L150.846 104.585L136.579 104.585L136.579 23.7703L150.846 23.7703L150.846 -4.89639e-06L114.02 -3.28668e-06L114.02 15.5735Z" fill="#0E96ED"/>
<path d="M38.8496 463.683L38.8496 490.858L151 490.858L151 463.683L38.8496 463.683Z" fill="#0E96ED"/>
<path fill-rule="evenodd" clip-rule="evenodd" d="M128.861 427.612L128.861 468.916L151 468.916L151 430.836C151 405.064 136.612 391.923 117.429 391.923C98.2461 391.923 83.8613 405.237 83.8613 430.781L83.8613 465.789L105.996 465.789L105.996 427.612C105.996 419.179 110.81 414.06 117.429 414.06C124.051 414.06 128.861 419.047 128.861 427.612Z" fill="#0E96ED"/>
<path fill-rule="evenodd" clip-rule="evenodd" d="M83.9946 429.995L83.9946 467.587L106.134 467.587L106.134 433.216C106.134 407.445 91.7455 394.306 72.5627 394.306C53.3799 394.306 38.9951 407.62 38.9951 433.161L38.9951 467.587L61.1301 467.587L61.1301 429.995C61.1301 421.561 65.9417 416.442 72.5627 416.442C79.1823 416.442 83.9946 421.428 83.9946 429.995Z" fill="#0E96ED"/>
</svg>
