<svg width="60" height="60" viewBox="0 0 60 60" fill="none" xmlns="http://www.w3.org/2000/svg">
<g clip-path="url(#clip0)">
<path d="M30.6218 54.8401C30.6218 53.081 31.1068 48.3118 31.5733 44.1325C31.4881 44.1566 31.4039 44.1798 31.3219 44.2013C29.8218 44.5957 28.2424 44.5957 26.7424 44.2013C26.6604 44.1798 26.5761 44.1566 26.4909 44.1325C26.9573 48.3132 27.4425 53.0845 27.4425 54.8447V54.8526C27.4425 55.5035 27.0655 56.0955 26.4757 56.3707L20.0579 59.3652C19.735 59.5159 19.8424 60 20.1988 60H37.8758C38.2317 60 38.3399 59.5171 38.0179 59.3657C36.2414 58.531 33.1606 57.0855 31.5931 56.36C31.0006 56.086 30.6218 55.4927 30.6218 54.8401Z" fill="#D6E5E2"/>
<path d="M38.1203 20.4691C37.9698 15.4269 39.3506 11.1787 40.0401 9.3915C40.2085 8.9551 39.8871 8.48611 39.4194 8.48611H18.645C18.1772 8.48611 17.8558 8.9551 18.0242 9.3915C18.7138 11.1786 20.0946 15.4269 19.9441 20.4691C19.7444 27.1596 14.5631 35.2481 18.8014 40.6405C21.3807 43.9222 24.6098 45.2806 26.7424 45.8414C28.2425 46.2357 29.8219 46.2357 31.322 45.8414C33.4547 45.2806 36.6837 43.9222 39.263 40.6405C43.5012 35.2482 38.32 27.1597 38.1203 20.4691Z" fill="#E5F9F6"/>
<path d="M38.12 20.4691C37.9695 15.4269 39.3503 11.1787 40.0399 9.3915C40.2083 8.9551 39.8868 8.48611 39.4191 8.48611H33.7441C33.7441 8.48611 31.2476 13.7787 31.4473 20.4691C31.647 27.1596 36.8283 35.2481 32.59 40.6405C30.4038 43.4219 27.7516 44.821 25.6951 45.5246C26.0654 45.6513 26.4167 45.7558 26.7421 45.8414C28.2423 46.2358 29.8216 46.2358 31.3217 45.8414C33.4543 45.2806 36.6834 43.9222 39.2627 40.6405C43.5009 35.2482 38.3197 27.1597 38.12 20.4691Z" fill="#D7E0DC"/>
<path d="M19.1084 12.883C19.6113 14.9394 20.0304 17.5726 19.9439 20.4691C19.7442 27.1596 14.5629 35.2481 18.8012 40.6405C21.3805 43.9222 24.6096 45.2807 26.7422 45.8414C28.2423 46.2357 29.8216 46.2357 31.3217 45.8414C33.4544 45.2807 36.6834 43.9222 39.2627 40.6405C43.501 35.2481 38.3197 27.1596 38.12 20.4691C38.0335 17.5727 38.4526 14.9394 38.9555 12.883H19.1084Z" fill="#FED130"/>
<path d="M21.879 2.98722C18.9443 0.923084 13.8075 0.990935 12.1141 1.0766C11.7944 1.09277 11.5425 1.35304 11.5366 1.67308C11.5059 3.3682 11.6046 8.50465 13.7627 11.3708C18.6009 17.7963 23.9596 13.122 23.9596 13.122C23.9596 13.122 28.4579 7.61461 21.879 2.98722Z" fill="#77D057"/>
<path d="M23.2394 7.72698C23.3518 7.24382 23.0512 6.76089 22.5679 6.64862C22.0845 6.53612 21.6018 6.83682 21.4896 7.32022L21.0796 9.08343L19.7488 7.79507L20.2468 5.65347C20.3592 5.17018 20.0586 4.68737 19.5753 4.57499C19.0922 4.46237 18.6092 4.76319 18.4969 5.24647L18.2432 6.33749L17.0532 5.18542L17.3212 4.03288C17.4336 3.5496 17.133 3.06679 16.6497 2.9544C16.1664 2.8419 15.6835 3.14261 15.5714 3.62589L15.5477 3.72784L12.7837 1.05222C12.5253 1.05843 12.2983 1.06733 12.1142 1.07659C11.7945 1.09276 11.5426 1.35304 11.5367 1.67307C11.5333 1.85741 11.5318 2.08464 11.534 2.34304L14.298 5.01878L14.1966 5.04585C13.7173 5.1737 13.4324 5.66612 13.5604 6.14542C13.6676 6.54726 14.0307 6.81233 14.4277 6.81233C14.5045 6.81233 14.5824 6.80249 14.66 6.78163L15.8036 6.47636L16.9935 7.62831L15.9113 7.91718C15.432 8.04515 15.1471 8.53745 15.2751 9.01675C15.3823 9.41847 15.7454 9.68354 16.1424 9.68354C16.2192 9.68354 16.2971 9.67358 16.3747 9.65284L18.499 9.08577L19.8092 10.3541L18.1139 10.8067C17.6346 10.9346 17.3497 11.4269 17.4776 11.9062C17.5849 12.3081 17.9479 12.5732 18.3449 12.5732C18.4217 12.5732 18.4996 12.5632 18.5772 12.5424L21.3147 11.8117L23.2143 13.6507C23.6885 13.3577 23.9595 13.1217 23.9595 13.1217C23.9595 13.1217 24.1866 12.8432 24.464 12.3598L22.585 10.5407L23.2394 7.72698Z" fill="#68B543"/>
<path d="M24.8009 8.15064C24.7966 8.15064 24.7922 8.15064 24.7879 8.15052C24.2919 8.14361 23.8954 7.73568 23.9024 7.23962C23.9365 4.82533 24.5784 3.12189 25.81 2.17689C27.2294 1.08787 28.8617 1.48396 28.9305 1.5013C29.4114 1.62294 29.7029 2.1115 29.5812 2.59244C29.4602 3.07079 28.9765 3.36165 28.4982 3.24517C28.4471 3.23357 27.6003 3.05497 26.8869 3.61537C26.1351 4.20599 25.7242 5.46798 25.6988 7.26505C25.692 7.75665 25.2911 8.15064 24.8009 8.15064Z" fill="#772424"/>
<path d="M24.2393 12.8817C26.4718 12.8817 28.2816 11.0719 28.2816 8.83945C28.2816 6.60696 26.4718 4.79718 24.2393 4.79718C22.0068 4.79718 20.197 6.60696 20.197 8.83945C20.197 11.0719 22.0068 12.8817 24.2393 12.8817Z" fill="#FC502A"/>
<path d="M42.762 0.43805C42.3325 0.189378 41.7831 0.335628 41.5343 0.764886L34.512 12.883H36.5884L43.0887 1.66571C43.3375 1.23657 43.1912 0.686839 42.762 0.43805Z" fill="#65DBEF"/>
<path d="M42.5445 0.00105989L31.8853 0.601177C31.6434 0.614771 31.5451 0.9177 31.7315 1.07227C36.5662 5.0809 42.1311 8.11629 48.1189 10.0107C48.3499 10.0839 48.5513 9.83719 48.4318 9.62649L43.1654 0.339732C43.0398 0.118013 42.799 -0.013237 42.5445 0.00105989Z" fill="#FF644A"/>
<path d="M48.4319 9.62647L43.1655 0.339717C43.0397 0.117998 42.799 -0.0133689 42.5445 0.00104516L40.3758 0.123155C38.5192 0.227686 37.4185 2.24589 38.3357 3.86331L39.8419 6.51937C42.482 7.93171 45.2513 9.10358 48.1192 10.0108C48.3501 10.0839 48.5513 9.83718 48.4319 9.62647Z" fill="#E52D15"/>
<path d="M40.8166 33.6526C40.7665 33.2252 40.7007 32.7933 40.6228 32.3578C40.5643 32.0312 40.499 31.7026 40.4282 31.3724C40.2869 30.712 40.124 30.0455 39.9515 29.3758C39.894 29.1527 39.8355 28.9292 39.7763 28.7055C39.658 28.2581 39.537 27.81 39.4171 27.3621C39.3571 27.1382 39.2975 26.9142 39.2384 26.6905C39.1794 26.4668 39.1211 26.2432 39.0639 26.0199C39.0067 25.7967 38.9507 25.5737 38.8962 25.3512C38.4876 23.6822 38.1671 22.0373 38.1203 20.4692C38.1153 20.2987 38.1123 20.1293 38.1105 19.9607C38.1099 19.9059 38.1103 19.8518 38.1101 19.7972C38.1098 19.6834 38.1096 19.5698 38.1106 19.457C38.1112 19.3933 38.1125 19.3302 38.1135 19.2669C38.1153 19.1632 38.1174 19.0597 38.1203 18.9568C38.1222 18.8921 38.1243 18.8278 38.1267 18.7635C38.1303 18.6614 38.1345 18.5598 38.1393 18.4587C38.1423 18.3968 38.1452 18.3349 38.1485 18.2734C38.1542 18.1671 38.1607 18.0616 38.1676 17.9564C38.1711 17.902 38.1744 17.8474 38.1782 17.7933C38.1871 17.6688 38.197 17.5455 38.2074 17.4227C38.2102 17.3894 38.2127 17.3557 38.2156 17.3225C38.2298 17.162 38.2451 17.0028 38.2618 16.8451C38.2618 16.8449 38.2619 16.8445 38.2619 16.8443C38.2782 16.6897 38.2959 16.5369 38.3143 16.3851C38.3185 16.3505 38.3231 16.3162 38.3274 16.2817C38.3423 16.1635 38.3575 16.0461 38.3736 15.9298C38.3791 15.8901 38.3847 15.8509 38.3903 15.8114C38.4063 15.6994 38.4226 15.5882 38.4396 15.478C38.4453 15.4407 38.451 15.4036 38.4569 15.3666C38.4751 15.2514 38.4937 15.1374 38.5129 15.0244C38.5178 14.9953 38.5226 14.9661 38.5277 14.9373C38.5501 14.8076 38.573 14.6792 38.5966 14.5524C38.5986 14.5419 38.6005 14.5312 38.6025 14.5207C38.7107 13.9421 38.8305 13.3951 38.9557 12.8832C38.9557 12.8832 38.9557 12.8831 38.9557 12.883H32.2826C31.7799 14.9393 31.3611 17.573 31.4476 20.4691C31.6473 27.1596 36.8286 35.2481 32.5903 40.6405C30.404 43.4219 27.7518 44.821 25.6953 45.5246C25.6958 45.5248 25.6961 45.5249 25.6966 45.5251C25.7825 45.5545 25.8672 45.5825 25.951 45.6095C25.9686 45.6151 25.9859 45.6206 26.0033 45.6261C26.0697 45.6473 26.1356 45.6677 26.2005 45.6875C26.2228 45.6942 26.2449 45.701 26.267 45.7076C26.3281 45.7258 26.3885 45.7433 26.4481 45.7604C26.4693 45.7665 26.4908 45.7727 26.5118 45.7786C26.5898 45.8005 26.6668 45.8215 26.7421 45.8413C26.9296 45.8906 27.1184 45.9337 27.308 45.9706C27.4978 46.0076 27.6883 46.0384 27.8796 46.0631C29.027 46.211 30.1966 46.1371 31.3216 45.8413C31.455 45.8062 31.5924 45.768 31.7339 45.7266C31.893 45.6798 32.0577 45.6282 32.2259 45.5724C33.1512 45.266 34.2055 44.8175 35.2884 44.1627C35.3551 44.1224 35.4219 44.0812 35.4887 44.0393C35.5954 43.9724 35.7023 43.9035 35.8093 43.8324C35.9051 43.7688 36.0011 43.7037 36.0972 43.6366C36.3889 43.4331 36.6807 43.2145 36.9708 42.9779C37.7602 42.3342 38.5371 41.5633 39.2624 40.6404C39.5935 40.2191 39.8671 39.7814 40.0901 39.3292C40.1793 39.1482 40.2604 38.9651 40.3339 38.7797C40.3706 38.687 40.4054 38.5937 40.4383 38.4999C40.6031 38.031 40.7212 37.5487 40.7998 37.0551C40.8469 36.759 40.8799 36.4587 40.8999 36.1547C40.9133 35.9521 40.921 35.7478 40.9235 35.542C40.9316 34.9247 40.8917 34.2937 40.8166 33.6526Z" fill="#EDBA18"/>
</g>
<defs>
<clipPath id="clip0">
<rect width="60" height="60" fill="white"/>
</clipPath>
</defs>
</svg>
