<svg width="147" height="150" viewBox="0 0 147 150" fill="none" xmlns="http://www.w3.org/2000/svg">
<path d="M51.483 35.3561V36.223L50.7327 35.7889L23.5892 20.0877C12.3359 30.4039 4.53102 43.9461 1.23897 58.868L28.3902 74.5753L29.1385 75.0082L28.3902 75.4409L1.23894 91.1415C4.52982 106.063 12.3349 119.605 23.5892 129.919L50.7327 114.222L51.483 113.788V114.655V146.069C66.0325 150.644 81.6321 150.644 96.1816 146.069V114.655V113.788L96.9318 114.222L124.086 129.919C135.337 119.602 143.141 106.062 146.434 91.1415L119.276 75.441L118.527 75.0082L119.276 74.5753L146.434 58.868C143.139 43.9476 135.336 30.4063 124.086 20.0877L96.9319 35.789L96.1816 36.2228V35.3561V3.93656C81.6332 -0.64552 66.0314 -0.645521 51.483 3.93656V35.3561Z" fill="#008CE6" stroke="#41B5FF"/>
</svg>
