<svg width="91" height="70" viewBox="0 0 91 70" fill="none" xmlns="http://www.w3.org/2000/svg">
<path fill-rule="evenodd" clip-rule="evenodd" d="M5.97639 34.3117L11.9933 16.5317H14.7282L20.7444 34.3117H26.6896L18.7382 11.1968H7.98267L0.0312653 34.3117H5.97639Z" fill="black"/>
<path fill-rule="evenodd" clip-rule="evenodd" d="M37.508 0.906534L36.2272 1.64607V0.166244C35.5339 -0.0554146 34.7888 -0.0554146 34.0956 0.166244V1.64607L32.8143 0.906534C32.275 1.39541 31.9024 2.04088 31.7486 2.75235L33.0301 3.49214L31.7486 4.23161C31.9023 4.94307 32.275 5.58852 32.8143 6.07731L34.0956 5.33796V6.81753C34.7889 7.03886 35.5339 7.03886 36.2272 6.81753V5.33796L37.508 6.07731C38.0475 5.58863 38.4202 4.94314 38.5738 4.23161L37.2926 3.49214L38.5738 2.75235C38.4202 2.04081 38.0474 1.3953 37.508 0.906534Z" fill="#F02D4B"/>
<path fill-rule="evenodd" clip-rule="evenodd" d="M50.3565 1.14495L51.0958 2.42604H49.6167C49.3941 3.11903 49.3941 3.86432 49.6167 4.5573H51.0958L50.3565 5.83877C50.8454 6.37776 51.4906 6.75037 52.2018 6.90444L52.9421 5.62353L53.6815 6.90444C54.393 6.75079 55.0384 6.37812 55.5272 5.83877L54.7877 4.5573H56.2675C56.4892 3.86417 56.4892 3.11917 56.2675 2.42604H54.7877L55.5272 1.14495C55.0385 0.605488 54.393 0.232812 53.6815 0.0793457L52.9421 1.36031L52.2018 0.0793457C51.4905 0.233238 50.8453 0.605853 50.3565 1.14495Z" fill="#FFC700"/>
<path fill-rule="evenodd" clip-rule="evenodd" d="M74.1068 16.5318H76.8416L81.0528 28.9777H69.895L74.1068 16.5318ZM86.9682 28.9777L80.8519 11.197H70.0959L63.9801 28.9777H60.2976V37.6859H65.9188V34.3125H85.0299V37.6859H90.6502V28.9777H86.9682Z" fill="black"/>
<path fill-rule="evenodd" clip-rule="evenodd" d="M26.7091 69.9819L32.1524 54.1478H33.1908L38.6397 69.9819H44.1786L37.0975 49.3978H28.2519L21.1708 69.9819H26.7091Z" fill="black"/>
<path fill-rule="evenodd" clip-rule="evenodd" d="M63.3532 54.0256V49.275H47.9183V69.8597H63.3532V65.1073H52.9138V61.943H60.9779V57.1912H52.9138V54.0256H63.3532Z" fill="black"/>
<path fill-rule="evenodd" clip-rule="evenodd" d="M59.6353 47.265C60.1293 47.2651 60.6123 47.1187 61.0231 46.8443C61.434 46.5699 61.7542 46.1798 61.9433 45.7234C62.1324 45.267 62.182 44.7647 62.0857 44.2802C61.9893 43.7956 61.7515 43.3505 61.4022 43.0011C61.0529 42.6517 60.6078 42.4138 60.1233 42.3173C59.6387 42.2209 59.1365 42.2703 58.68 42.4594C58.2236 42.6484 57.8334 42.9685 57.5589 43.3793C57.2844 43.7901 57.1379 44.273 57.1379 44.7671C57.1379 45.4295 57.401 46.0647 57.8693 46.5332C58.3377 47.0016 58.9729 47.2649 59.6353 47.265Z" fill="black"/>
<path fill-rule="evenodd" clip-rule="evenodd" d="M51.6365 47.265C52.1305 47.2651 52.6135 47.1187 53.0244 46.8443C53.4352 46.5699 53.7555 46.1799 53.9446 45.7235C54.1338 45.2671 54.1833 44.7648 54.087 44.2802C53.9907 43.7957 53.7529 43.3505 53.4036 43.0011C53.0543 42.6517 52.6092 42.4138 52.1247 42.3173C51.6401 42.2209 51.1379 42.2703 50.6814 42.4593C50.2249 42.6484 49.8348 42.9685 49.5603 43.3793C49.2858 43.7901 49.1393 44.273 49.1392 44.7671C49.1392 45.4294 49.4023 46.0647 49.8706 46.5331C50.3389 47.0016 50.9741 47.2648 51.6365 47.265Z" fill="black"/>
<path fill-rule="evenodd" clip-rule="evenodd" d="M77.8126 53.4334H79.9504L83.2425 63.1633H74.52L77.8126 53.4334ZM87.8669 63.1633L83.0854 49.2627H74.6771L69.8959 63.1633H67.0166V69.9714H71.4113V67.334H86.3516V69.9714H90.746V63.1633H87.8669Z" fill="black"/>
<path d="M5.02385 49.2665H0V70H5.02385V49.2665Z" fill="black"/>
<path fill-rule="evenodd" clip-rule="evenodd" d="M11.6924 65.907H4.05646V70H11.0965C15.8608 70 18.2903 67.3401 18.2903 63.7937C18.2903 60.2472 15.8289 57.5879 11.1065 57.5879H4.63453V61.68H11.6924C13.2513 61.68 14.1977 62.57 14.1977 63.7937C14.1977 65.0178 13.2758 65.907 11.6924 65.907Z" fill="black"/>
<path fill-rule="evenodd" clip-rule="evenodd" d="M11.252 57.6129H4.30229V61.7059H10.6564C15.4208 61.7059 17.8498 59.0458 17.8498 55.4994C17.8498 51.953 15.3885 49.2937 10.6666 49.2937H4.30229V53.3858H11.252C12.8112 53.3858 13.7576 54.2754 13.7576 55.4994C13.7576 56.7232 12.8357 57.6129 11.252 57.6129Z" fill="black"/>
<path d="M42.6696 13.8303L50.6696 16.8303L40.6696 25.3303L33.6696 22.8303L42.6696 13.8303Z" fill="#008CE6"/>
<path fill-rule="evenodd" clip-rule="evenodd" d="M32.7105 17.9326C31.4811 20.8984 31.4304 24.2218 32.5688 27.2237C33.7072 30.2257 35.9488 32.6797 38.8356 34.0845C41.7225 35.4894 45.0369 35.739 48.1016 34.7824C51.1663 33.8258 53.7502 31.7352 55.3254 28.9376L50.5424 26.3556C50.0117 27.2734 49.2836 28.0617 48.4107 28.6634C47.5378 29.2651 46.5419 29.6651 45.4954 29.8345C44.4488 30.0038 43.3777 29.9383 42.3595 29.6427C41.3414 29.347 40.4017 28.8287 39.6087 28.1251L56.434 19.1803C55.9326 17.487 55.081 15.9179 53.9342 14.5748C52.7875 13.2318 51.3712 12.1448 49.7773 11.3843C48.1834 10.6238 46.4475 10.2069 44.6821 10.1605C42.9167 10.1141 41.1612 10.4393 39.5296 11.1149C37.9999 11.7462 36.6101 12.6735 35.4399 13.8435C34.2697 15.0135 33.3421 16.4031 32.7105 17.9326ZM49.0826 17.3701L37.2393 23.6675C37.0534 22.2226 37.3122 20.7555 37.9811 19.4614C38.65 18.1673 39.6974 17.1077 40.9836 16.4238C42.2698 15.7399 43.7339 15.4641 45.1808 15.6332C46.6277 15.8023 47.9887 16.4081 49.0826 17.3701Z" fill="black"/>
</svg>
