<svg width="130" height="100" viewBox="0 0 130 100" fill="none" xmlns="http://www.w3.org/2000/svg">
<path fill-rule="evenodd" clip-rule="evenodd" d="M8.53772 49.0167L17.1333 23.6168H21.0402L29.6349 49.0167H38.128L26.7688 15.9954H11.4038L0.0446777 49.0167H8.53772Z" fill="white"/>
<path fill-rule="evenodd" clip-rule="evenodd" d="M53.5829 1.29505L51.7531 2.35153V0.237491C50.7628 -0.0791636 49.6984 -0.0791636 48.7081 0.237491V2.35153L46.8776 1.29505C46.1072 1.99344 45.5748 2.91554 45.3552 3.93193L47.1859 4.98877L45.3552 6.04516C45.5748 7.06153 46.1071 7.9836 46.8776 8.68186L48.7081 7.62565V9.73933C49.6985 10.0555 50.7627 10.0555 51.7531 9.73933V7.62565L53.5829 8.68186C54.3536 7.98376 54.8861 7.06163 55.1054 6.04516L53.2752 4.98877L55.1054 3.93193C54.886 2.91544 54.3535 1.99328 53.5829 1.29505Z" fill="#FF4E5A"/>
<path fill-rule="evenodd" clip-rule="evenodd" d="M71.9379 1.63569L72.994 3.46582H70.8809C70.563 4.4558 70.563 5.5205 70.8809 6.51049H72.994L71.9379 8.34116C72.6363 9.11114 73.558 9.64343 74.5739 9.86354L75.6315 8.03367L76.6878 9.86354C77.7042 9.64404 78.6263 9.11166 79.3246 8.34116L78.2681 6.51049H80.3822C80.6988 5.5203 80.6988 4.45601 80.3822 3.46582H78.2681L79.3246 1.63569C78.6265 0.865036 77.7043 0.332641 76.6878 0.113403L75.6315 1.94335L74.5739 0.113403C73.5579 0.33325 72.6361 0.865556 71.9379 1.63569Z" fill="#FFC700"/>
<path fill-rule="evenodd" clip-rule="evenodd" d="M105.867 23.6169H109.774L115.79 41.3967H99.85L105.867 23.6169ZM124.24 41.3967L115.503 15.9958H100.137L91.4002 41.3967H86.1394V53.8371H94.1697V49.0179H121.471V53.8371H129.5V41.3967H124.24Z" fill="white"/>
<path fill-rule="evenodd" clip-rule="evenodd" d="M38.1559 99.9741L45.932 77.3539H47.4154L55.1996 99.9741H63.1124L52.9965 70.5682H40.3599L30.244 99.9741H38.1559Z" fill="white"/>
<path fill-rule="evenodd" clip-rule="evenodd" d="M90.5045 77.1794V70.3929H68.4546V99.7996H90.5045V93.0104H75.591V88.49H87.1112V81.7016H75.591V77.1794H90.5045Z" fill="white"/>
<path fill-rule="evenodd" clip-rule="evenodd" d="M85.1933 67.5214C85.8991 67.5216 86.589 67.3124 87.1759 66.9204C87.7628 66.5284 88.2203 65.9712 88.4905 65.3191C88.7607 64.6671 88.8315 63.9496 88.6939 63.2574C88.5563 62.5651 88.2165 61.9293 87.7175 61.4301C87.2185 60.931 86.5827 60.5911 85.8905 60.4533C85.1983 60.3156 84.4807 60.3862 83.8287 60.6562C83.1766 60.9263 82.6192 61.3836 82.2271 61.9704C81.835 62.5572 81.6256 63.2472 81.6256 63.9529C81.6256 64.8992 82.0015 65.8068 82.6705 66.476C83.3396 67.1452 84.247 67.5212 85.1933 67.5214Z" fill="white"/>
<path fill-rule="evenodd" clip-rule="evenodd" d="M73.7665 67.5214C74.4723 67.5216 75.1622 67.3125 75.7492 66.9205C76.3361 66.5285 76.7936 65.9713 77.0638 65.3193C77.334 64.6672 77.4048 63.9497 77.2672 63.2575C77.1297 62.5652 76.7899 61.9293 76.2909 61.4302C75.7919 60.9311 75.1561 60.5911 74.4639 60.4533C73.7717 60.3156 73.0542 60.3862 72.4021 60.6562C71.75 60.9263 71.1926 61.3836 70.8005 61.9704C70.4083 62.5572 70.199 63.2472 70.199 63.9529C70.199 64.8992 70.5748 65.8067 71.2438 66.4759C71.9128 67.1451 72.8202 67.5212 73.7665 67.5214Z" fill="white"/>
<path fill-rule="evenodd" clip-rule="evenodd" d="M111.161 76.3333H114.215L118.918 90.2333H106.457L111.161 76.3333ZM125.524 90.2333L118.693 70.3752H106.682L99.8512 90.2333H95.738V99.9591H102.016V96.1913H123.359V99.9591H129.637V90.2333H125.524Z" fill="white"/>
<path d="M7.17693 70.3807H0V100H7.17693V70.3807Z" fill="white"/>
<path fill-rule="evenodd" clip-rule="evenodd" d="M16.7034 94.1529H5.79492V100H15.8521C22.6583 100 26.129 96.2001 26.129 91.1337C26.129 86.0674 22.6127 82.2684 15.8664 82.2684H6.62075V88.1143H16.7034C18.9305 88.1143 20.2825 89.3857 20.2825 91.1337C20.2825 92.8826 18.9654 94.1529 16.7034 94.1529Z" fill="white"/>
<path fill-rule="evenodd" clip-rule="evenodd" d="M16.0743 82.3041H6.14612V88.1512H15.2234C22.0297 88.1512 25.4996 84.3511 25.4996 79.2848C25.4996 74.2186 21.9835 70.4196 15.238 70.4196H6.14612V76.2655H16.0743C18.3018 76.2655 19.6537 77.5362 19.6537 79.2848C19.6537 81.0331 18.3367 82.3041 16.0743 82.3041Z" fill="white"/>
<path d="M60.9566 19.7576L72.3852 24.0433L58.0995 36.1862L48.0995 32.6148L60.9566 19.7576Z" fill="#008CE6"/>
<path fill-rule="evenodd" clip-rule="evenodd" d="M46.7294 25.618C44.973 29.8549 44.9006 34.6026 46.5269 38.8911C48.1532 43.1796 51.3554 46.6853 55.4795 48.6922C59.6037 50.6991 64.3384 51.0557 68.7166 49.6892C73.0948 48.3226 76.786 45.336 79.0363 41.3395L72.2035 37.6509C71.4454 38.962 70.4052 40.0882 69.1581 40.9477C67.9111 41.8073 66.4885 42.3787 64.9934 42.6207C63.4983 42.8627 61.9681 42.7691 60.5137 42.3467C59.0592 41.9244 57.7168 41.1838 56.5838 40.1787L80.62 27.4005C79.9038 24.9814 78.6872 22.7399 77.0489 20.8212C75.4107 18.9026 73.3875 17.3497 71.1105 16.2634C68.8335 15.177 66.3536 14.5813 63.8316 14.515C61.3096 14.4487 58.8018 14.9133 56.4709 15.8785C54.2857 16.7804 52.3002 18.105 50.6285 19.7764C48.9567 21.4478 47.6317 23.4331 46.7294 25.618ZM70.1181 24.8145L53.1991 33.8107C52.9335 31.7467 53.3032 29.6507 54.2588 27.802C55.2144 25.9533 56.7106 24.4397 58.548 23.4627C60.3855 22.4856 62.477 22.0917 64.544 22.3332C66.611 22.5747 68.5554 23.4402 70.1181 24.8145Z" fill="white"/>
</svg>
