<svg width="196" height="100" viewBox="0 0 196 100" fill="none" xmlns="http://www.w3.org/2000/svg">
<path d="M67.5809 -52.8585V-51.9916L66.8306 -52.4257L30.5334 -73.4219C15.4252 -59.606 4.95673 -41.4423 0.566498 -21.4261L36.8737 -0.421974L37.622 0.01091L36.8736 0.443657L0.566483 21.4387C4.95512 41.4546 15.424 59.6176 30.5334 73.431L66.8306 52.44L67.5809 52.0061V52.8728V94.8804C87.0849 101.04 108.008 101.04 127.512 94.8804V52.8728V52.0063L128.263 52.44L164.574 73.431C179.679 59.6144 190.146 41.4526 194.537 21.4387L158.221 0.443687L157.473 0.01091L158.221 -0.422005L194.537 -21.4261C190.144 -41.4404 179.678 -59.6029 164.574 -73.4219L128.263 -52.4256L127.512 -51.9918V-52.8585V-94.8734C108.01 -101.042 87.0835 -101.042 67.5809 -94.8734V-52.8585Z" fill="#008CE6" stroke="#41B5FF"/>
</svg>
