<svg width="491" height="150" viewBox="0 0 491 150" fill="none" xmlns="http://www.w3.org/2000/svg">
<path fill-rule="evenodd" clip-rule="evenodd" d="M144.474 149.902L173.918 64.2523H179.534L209.008 149.902H238.969L200.667 38.5592H152.819L114.517 149.902H144.474Z" fill="#0E96ED"/>
<path fill-rule="evenodd" clip-rule="evenodd" d="M342.686 63.5919V37.8954H259.196V149.241H342.686V123.534H286.218V106.418H329.838V80.715H286.218V63.5919H342.686Z" fill="#0E96ED"/>
<path fill-rule="evenodd" clip-rule="evenodd" d="M322.576 27.0226C325.248 27.0231 327.861 26.2311 330.083 24.7468C332.305 23.2625 334.038 21.1525 335.061 18.6838C336.084 16.215 336.352 13.4982 335.831 10.8771C335.31 8.25604 334.023 5.84831 332.134 3.95845C330.244 2.06859 327.837 0.781469 325.216 0.259868C322.595 -0.261733 319.878 0.00562414 317.409 1.02811C314.94 2.05059 312.83 3.78227 311.345 6.00418C309.86 8.22609 309.067 10.8384 309.067 13.5108C309.067 17.0938 310.491 20.5301 313.024 23.064C315.557 25.5978 318.993 27.0218 322.576 27.0226Z" fill="#0E96ED"/>
<path fill-rule="evenodd" clip-rule="evenodd" d="M279.309 27.0226C281.981 27.0232 284.594 26.2314 286.816 24.7471C289.038 23.2629 290.771 21.153 291.794 18.6842C292.817 16.2154 293.085 13.4987 292.564 10.8775C292.043 8.25641 290.757 5.84864 288.867 3.95871C286.978 2.06877 284.57 0.781572 281.949 0.259916C279.328 -0.261741 276.612 0.0055873 274.143 1.02805C271.674 2.05052 269.563 3.7822 268.078 6.00412C266.593 8.22605 265.801 10.8384 265.801 13.5108C265.801 17.0937 267.224 20.53 269.757 23.0638C272.29 25.5977 275.726 27.0217 279.309 27.0226Z" fill="#0E96ED"/>
<path fill-rule="evenodd" clip-rule="evenodd" d="M420.899 60.3886H432.462L450.27 113.019H403.089L420.899 60.3886ZM475.284 113.019L449.42 37.8289H403.939L378.076 113.019H362.502V149.845H386.273V135.579H467.088V149.845H490.858V113.019H475.284Z" fill="#0E96ED"/>
<path d="M27.1748 37.8492H0V150H27.1748V37.8492Z" fill="#0E96ED"/>
<path fill-rule="evenodd" clip-rule="evenodd" d="M63.2456 127.86H21.9419V150H60.0224C85.7934 150 98.9349 135.612 98.9349 116.429C98.9349 97.2456 85.6207 82.8608 60.0765 82.8608H25.0688V104.996H63.2456C71.6784 104.996 76.7976 109.81 76.7976 116.429C76.7976 123.05 71.8106 127.86 63.2456 127.86Z" fill="#0E96ED"/>
<path fill-rule="evenodd" clip-rule="evenodd" d="M60.863 82.9948H23.271V105.135H57.6414C83.4125 105.135 96.5513 90.7457 96.5513 71.5629C96.5513 52.3801 83.2377 37.9953 57.6966 37.9953H23.271V60.1302H60.863C69.2971 60.1302 74.416 64.9419 74.416 71.5629C74.416 78.1825 69.4296 82.9948 60.863 82.9948Z" fill="#0E96ED"/>
</svg>
