<svg width="361" height="150" viewBox="0 0 361 150" fill="none" xmlns="http://www.w3.org/2000/svg">
<path d="M47.6123 65.3011H47.2536L47.1386 65.6408L23.3046 136.07H0.700753L32.0055 45.0666L74.1019 45.0666L105.407 136.07H82.8028L58.9713 65.6409L58.8564 65.3011H58.4977L47.6123 65.3011Z" stroke="#41B5FF"/>
<path d="M143.569 6.55182V7.41787L144.319 6.98482L149.097 4.22609C150.937 5.98574 152.235 8.23442 152.84 10.707L148.06 13.4667L147.31 13.8998L148.06 14.3327L152.84 17.0912C152.235 19.5637 150.937 21.8123 149.097 23.5716L144.319 20.8135L143.569 20.3806V21.2465V26.7653C141.125 27.4734 138.53 27.4734 136.085 26.7653V21.2465V20.3808L135.335 20.8135L130.556 23.5716C128.717 21.8119 127.419 19.5635 126.814 17.0912L131.594 14.3328L132.344 13.8998L131.594 13.4667L126.814 10.707C127.419 8.23464 128.717 5.98611 130.556 4.2261L135.335 6.98486L136.085 7.4177V6.55182V1.03192C138.53 0.322693 141.125 0.322693 143.569 1.03192V6.55182Z" stroke="#41B5FF"/>
<path d="M203.251 10.1563H204.116L203.684 9.40637L200.926 4.62747C202.685 2.78946 204.933 1.49143 207.405 0.88605L210.166 5.66458L210.599 6.4141L211.032 5.66436L213.791 0.885879C216.263 1.48988 218.512 2.78809 220.271 4.62729L217.512 9.40631L217.079 10.1563H217.945H223.465C224.174 12.6001 224.174 15.1955 223.465 17.6393H217.945H217.079L217.512 18.3892L220.271 23.1697C218.511 25.0086 216.263 26.3068 213.79 26.9114L211.032 22.1332L210.599 21.3835L210.166 22.133L207.405 26.9112C204.933 26.3052 202.686 25.0072 200.926 23.1695L203.684 18.3892L204.116 17.6393H203.251H197.733C197.021 15.1959 197.021 12.5997 197.733 10.1563L203.251 10.1563Z" stroke="#41B5FF"/>
<path d="M294.841 65.3004H294.483L294.368 65.6401L277.604 115.178L277.38 115.839H278.077L322.489 115.839H323.186L322.962 115.178L306.2 65.6401L306.085 65.3004H305.727L294.841 65.3004ZM345.56 115.501L345.677 115.839H346.033H360.189V149.5H338.818V136.573V136.073H338.318H262.251H261.751V136.573V149.5H240.377L240.377 115.839H254.535H254.891L255.007 115.501L279.234 45.0666L321.332 45.0666L345.56 115.501Z" stroke="#41B5FF"/>
<path d="M130.535 71.5681L130.535 71.5675C133.024 65.5406 136.679 60.0647 141.29 55.4544C145.902 50.8441 151.378 47.1902 157.406 44.7026L157.406 44.7024C163.836 42.0398 170.753 40.7584 177.71 40.9413C184.667 41.1241 191.507 42.7672 197.788 45.7639C204.069 48.7606 209.65 53.0441 214.169 58.3365C218.6 63.5253 221.912 69.5705 223.902 76.094L157.295 111.504L156.659 111.842L157.198 112.32C160.41 115.169 164.216 117.269 168.339 118.466C172.463 119.664 176.801 119.929 181.04 119.243C185.279 118.557 189.312 116.937 192.848 114.5C196.25 112.155 199.109 109.11 201.235 105.571L219.399 115.377C213.17 126.179 203.1 134.247 191.185 137.966C179.108 141.736 166.048 140.752 154.672 135.216C143.296 129.68 134.462 120.01 129.976 108.181C125.491 96.3511 125.69 83.2552 130.535 71.5681ZM195.473 69.5794L196.112 69.2399L195.569 68.7624C191.139 64.8663 185.626 62.4124 179.766 61.7277C173.906 61.043 167.977 62.16 162.768 64.9298C157.558 67.6997 153.317 71.991 150.607 77.232C147.898 82.4731 146.85 88.4152 147.603 94.2668L147.695 94.9839L148.334 94.6445L195.473 69.5794Z" stroke="#41B5FF"/>
</svg>
