<svg width="757" height="388" viewBox="0 0 757 388" fill="none" xmlns="http://www.w3.org/2000/svg">
<path fill-rule="evenodd" clip-rule="evenodd" d="M118.211 100.733L260.272 182.909V18.4728C337.159 -6.15759 419.799 -6.15759 496.686 18.4728V182.909L638.804 100.733C698.617 155.056 739.949 226.78 757 305.837L614.869 388.042L757 470.211C739.956 549.267 698.622 620.989 638.804 675.302L496.686 593.147V757.555C419.793 782.148 337.165 782.148 260.272 757.555V593.147L118.211 675.302C58.3742 621.001 17.0323 549.275 0 470.211L142.097 388.042L0 305.837C17.0388 226.772 58.3793 155.044 118.211 100.733Z" fill="#E3F4FF"/>
</svg>
