<svg width="20" height="20" viewBox="0 0 20 20" fill="none" xmlns="http://www.w3.org/2000/svg">
<path d="M19.9096 7.60204C19.6693 6.8655 19.0134 6.38959 18.2387 6.38959H13.2426L11.6693 1.61173C11.4275 0.877266 10.7729 0.403854 10.0004 0.403854C9.99992 0.403854 7.65649 8.34698 7.65649 8.34698L9.99992 16.2901L14.0551 19.2516C14.6824 19.7096 15.4941 19.7111 16.123 19.2553C16.7519 18.7996 17.0032 18.0278 16.7632 17.2891L15.213 12.5178H15.2338L19.2752 9.56654C19.9009 9.10969 20.1499 8.33854 19.9096 7.60204Z" fill="#FFC800"/>
<path d="M9.99308 0.403893C9.21741 0.40694 8.56316 0.886211 8.32636 1.6249L6.79891 6.38961H1.7612C0.984512 6.38961 0.328118 6.86712 0.08901 7.60608C-0.150137 8.34504 0.102094 9.11658 0.731617 9.5716L4.79079 12.5056L3.23655 17.2891C2.99654 18.0278 3.24784 18.7996 3.87677 19.2553C4.50567 19.7111 5.3174 19.7096 5.94465 19.2516L9.99996 16.2901C10 16.2901 10 0.403854 10 0.403854C9.99773 0.403854 9.99535 0.403854 9.99308 0.403893Z" fill="#FFC800"/>
</svg>
