<svg width="10" height="20" xmlns="http://www.w3.org/2000/svg">

 <g>
  <title>background</title>
  <rect fill="none" id="canvas_background" height="402" width="582" y="-1" x="-1"/>
 </g>
 <g>
  <title>Layer 1</title>
  <path stroke="null" id="svg_1" fill="#FFC800" d="m0.029625,0.40389c0.772143,0.00305 1.423418,0.48232 1.659141,1.22101l1.520504,4.76471l5.014801,0c0.773158,0 1.426563,0.47751 1.664586,1.21647c0.238062,0.73896 -0.013021,1.5105 -0.639688,1.96552l-4.040711,2.934l1.547172,4.7835c0.238919,0.7387 -0.011239,1.5105 -0.637309,1.9662c-0.62604,0.4558 -1.434079,0.4543 -2.058476,-0.0037l-4.036869,-2.9615c-0.00004,0 -0.00004,-15.88625 -0.00004,-15.88625c0.00226,0 0.004629,0 0.006889,0.00004z"/>
 </g>
</svg>