<svg width="20" height="13" viewBox="0 0 20 13" fill="none" xmlns="http://www.w3.org/2000/svg">
<path d="M10.7804 12.1054L19.6805 3.2134C19.8865 3.00774 20 2.7332 20 2.44046C20 2.14773 19.8865 1.87319 19.6805 1.66753L19.0252 1.01269C18.5982 0.586589 17.9042 0.586589 17.4779 1.01269L10.0041 8.47953L2.52209 1.00441C2.31608 0.798748 2.04145 0.685195 1.7486 0.685195C1.45543 0.685195 1.1808 0.798747 0.974625 1.00441L0.319508 1.65924C0.113495 1.86507 -6.36262e-08 2.13945 -7.64339e-08 2.43218C-8.92416e-08 2.72491 0.113495 2.99945 0.319507 3.20511L9.22773 12.1054C9.43439 12.3116 9.71033 12.4248 10.0037 12.4241C10.2981 12.4248 10.5739 12.3116 10.7804 12.1054Z" fill="white"/>
</svg>
